<svg viewBox="0 0 804 160" xmlns="http://www.w3.org/2000/svg" font-family="Courier New, monospace">
  <rect width="804" height="160" fill="#0D1F0D"/>
  <text x="402.0" y="20" font-size="14" fill="#55FF55" text-anchor="middle" font-weight="bold">EQUIPPED LOADOUT</text>
  
  <rect x="20" y="30" width="76" height="76" fill="#8B8B8B" stroke="#373737" stroke-width="4"/>
  <rect x="26" y="36" width="64" height="64" fill="#ED8B00"/>
  
  <text x="58.0" y="92" font-size="11" font-weight="bold" fill="#FFFFFF" text-anchor="middle" font-family="Courier New, monospace">JAVA</text>
  <rect x="106" y="30" width="76" height="76" fill="#8B8B8B" stroke="#373737" stroke-width="4"/>
  <rect x="112" y="36" width="64" height="64" fill="#F7DF1E"/>
  
  <text x="144.0" y="92" font-size="11" font-weight="bold" fill="#1A1A1A" text-anchor="middle" font-family="Courier New, monospace">JS</text>
  <rect x="192" y="30" width="76" height="76" fill="#8B8B8B" stroke="#373737" stroke-width="4"/>
  <rect x="198" y="36" width="64" height="64" fill="#3178C6"/>
  
  <text x="230.0" y="92" font-size="11" font-weight="bold" fill="#FFFFFF" text-anchor="middle" font-family="Courier New, monospace">TS</text>
  <rect x="278" y="30" width="76" height="76" fill="#8B8B8B" stroke="#FFFFFF" stroke-width="5"/>
  <rect x="284" y="36" width="64" height="64" fill="#61DAFB"/>
  <circle cx="316.0" cy="60.0" r="3.6" fill="#1A1A1A"/><ellipse cx="316.0" cy="60.0" rx="14.4" ry="5.4" fill="none" stroke="#1A1A1A" stroke-width="1.4400000000000002" transform="rotate(0 316.0 60.0)"/><ellipse cx="316.0" cy="60.0" rx="14.4" ry="5.4" fill="none" stroke="#1A1A1A" stroke-width="1.4400000000000002" transform="rotate(60 316.0 60.0)"/><ellipse cx="316.0" cy="60.0" rx="14.4" ry="5.4" fill="none" stroke="#1A1A1A" stroke-width="1.4400000000000002" transform="rotate(120 316.0 60.0)"/>
  <text x="316.0" y="92" font-size="11" font-weight="bold" fill="#1A1A1A" text-anchor="middle" font-family="Courier New, monospace">REACT</text>
  <rect x="364" y="30" width="76" height="76" fill="#8B8B8B" stroke="#373737" stroke-width="4"/>
  <rect x="370" y="36" width="64" height="64" fill="#339933"/>
  
  <text x="402.0" y="92" font-size="11" font-weight="bold" fill="#FFFFFF" text-anchor="middle" font-family="Courier New, monospace">NODE</text>
  <rect x="450" y="30" width="76" height="76" fill="#8B8B8B" stroke="#373737" stroke-width="4"/>
  <rect x="456" y="36" width="64" height="64" fill="#47A248"/>
  <g transform="translate(488.0,60.0) scale(0.9)">
    <ellipse cx="0" cy="-10" rx="14" ry="5" fill="#FFFFFF"/>
    <path d="M -14,-10 L -14,8 A 14 5 0 0 0 14 8 L 14,-10" fill="#FFFFFF" opacity="0.85"/>
    <ellipse cx="0" cy="8" rx="14" ry="5" fill="#FFFFFF"/>
    </g>
  <text x="488.0" y="92" font-size="11" font-weight="bold" fill="#FFFFFF" text-anchor="middle" font-family="Courier New, monospace">MONGO</text>
  <rect x="536" y="30" width="76" height="76" fill="#8B8B8B" stroke="#373737" stroke-width="4"/>
  <rect x="542" y="36" width="64" height="64" fill="#4479A1"/>
  <g transform="translate(574.0,60.0) scale(0.9)">
    <ellipse cx="0" cy="-10" rx="14" ry="5" fill="#FFFFFF"/>
    <path d="M -14,-10 L -14,8 A 14 5 0 0 0 14 8 L 14,-10" fill="#FFFFFF" opacity="0.85"/>
    <ellipse cx="0" cy="8" rx="14" ry="5" fill="#FFFFFF"/>
    </g>
  <text x="574.0" y="92" font-size="11" font-weight="bold" fill="#FFFFFF" text-anchor="middle" font-family="Courier New, monospace">SQL</text>
  <rect x="622" y="30" width="76" height="76" fill="#8B8B8B" stroke="#373737" stroke-width="4"/>
  <rect x="628" y="36" width="64" height="64" fill="#0078D4"/>
  <g transform="translate(660.0,60.0) scale(0.9)">
    <ellipse cx="-8" cy="2" rx="9" ry="7" fill="#FFFFFF"/>
    <ellipse cx="4" cy="-2" rx="11" ry="9" fill="#FFFFFF"/>
    <ellipse cx="14" cy="3" rx="8" ry="6" fill="#FFFFFF"/>
    <rect x="-16" y="2" width="38" height="8" fill="#FFFFFF"/>
    </g>
  <text x="660.0" y="92" font-size="11" font-weight="bold" fill="#FFFFFF" text-anchor="middle" font-family="Courier New, monospace">AZURE</text>
  <rect x="708" y="30" width="76" height="76" fill="#8B8B8B" stroke="#373737" stroke-width="4"/>
  <rect x="714" y="36" width="64" height="64" fill="#2496ED"/>
  <g transform="translate(746.0,60.0) scale(0.9)" stroke="#FFFFFF" stroke-width="2" fill="none">
    <polygon points="0,-14 14,-7 14,7 0,14 -14,7 -14,-7" />
    <line x1="0" y1="-14" x2="0" y2="14"/>
    <line x1="0" y1="-14" x2="14" y2="-7"/>
    <line x1="0" y1="-14" x2="-14" y2="-7"/>
    </g>
  <text x="746.0" y="92" font-size="11" font-weight="bold" fill="#FFFFFF" text-anchor="middle" font-family="Courier New, monospace">DOCKER</text>
</svg>