<svg viewBox="0 0 780 200" xmlns="http://www.w3.org/2000/svg" font-family="Courier New, monospace">
  <rect width="780" height="200" fill="#0D1F0D"/>
  
  <rect x="10" y="10" width="760" height="180" fill="#C6C6C6" stroke="#373737" stroke-width="4"/>
  <line x1="13" y1="13" x2="767" y2="13" stroke="#FFFFFF" stroke-width="2"/>
  <line x1="13" y1="13" x2="13" y2="187" stroke="#FFFFFF" stroke-width="2"/>
  <line x1="13" y1="187" x2="767" y2="187" stroke="#555555" stroke-width="2"/>
  <line x1="767" y1="13" x2="767" y2="187" stroke="#555555" stroke-width="2"/>
  <text x="30" y="42" font-size="20" font-weight="bold" fill="#1A1A1A">SPAWN STATS</text>
  <rect x="33" y="58" width="3" height="3" fill="#FF3B3B"/><rect x="36" y="58" width="3" height="3" fill="#FF3B3B"/><rect x="42" y="58" width="3" height="3" fill="#FF3B3B"/><rect x="45" y="58" width="3" height="3" fill="#FF3B3B"/><rect x="30" y="61" width="3" height="3" fill="#FF3B3B"/><rect x="33" y="61" width="3" height="3" fill="#FF3B3B"/><rect x="36" y="61" width="3" height="3" fill="#FF3B3B"/><rect x="39" y="61" width="3" height="3" fill="#FF3B3B"/><rect x="42" y="61" width="3" height="3" fill="#FF3B3B"/><rect x="45" y="61" width="3" height="3" fill="#FF3B3B"/><rect x="48" y="61" width="3" height="3" fill="#FF3B3B"/><rect x="30" y="64" width="3" height="3" fill="#FF3B3B"/><rect x="33" y="64" width="3" height="3" fill="#FF3B3B"/><rect x="36" y="64" width="3" height="3" fill="#FF3B3B"/><rect x="39" y="64" width="3" height="3" fill="#FF3B3B"/><rect x="42" y="64" width="3" height="3" fill="#FF3B3B"/><rect x="45" y="64" width="3" height="3" fill="#FF3B3B"/><rect x="48" y="64" width="3" height="3" fill="#FF3B3B"/><rect x="33" y="67" width="3" height="3" fill="#FF3B3B"/><rect x="36" y="67" width="3" height="3" fill="#FF3B3B"/><rect x="39" y="67" width="3" height="3" fill="#FF3B3B"/><rect x="42" y="67" width="3" height="3" fill="#FF3B3B"/><rect x="45" y="67" width="3" height="3" fill="#FF3B3B"/><rect x="36" y="70" width="3" height="3" fill="#FF3B3B"/><rect x="39" y="70" width="3" height="3" fill="#FF3B3B"/><rect x="42" y="70" width="3" height="3" fill="#FF3B3B"/><rect x="39" y="73" width="3" height="3" fill="#FF3B3B"/><rect x="57" y="58" width="3" height="3" fill="#FF3B3B"/><rect x="60" y="58" width="3" height="3" fill="#FF3B3B"/><rect x="66" y="58" width="3" height="3" fill="#FF3B3B"/><rect x="69" y="58" width="3" height="3" fill="#FF3B3B"/><rect x="54" y="61" width="3" height="3" fill="#FF3B3B"/><rect x="57" y="61" width="3" height="3" fill="#FF3B3B"/><rect x="60" y="61" width="3" height="3" fill="#FF3B3B"/><rect x="63" y="61" width="3" height="3" fill="#FF3B3B"/><rect x="66" y="61" width="3" height="3" fill="#FF3B3B"/><rect x="69" y="61" width="3" height="3" fill="#FF3B3B"/><rect x="72" y="61" width="3" height="3" fill="#FF3B3B"/><rect x="54" y="64" width="3" height="3" fill="#FF3B3B"/><rect x="57" y="64" width="3" height="3" fill="#FF3B3B"/><rect x="60" y="64" width="3" height="3" fill="#FF3B3B"/><rect x="63" y="64" width="3" height="3" fill="#FF3B3B"/><rect x="66" y="64" width="3" height="3" fill="#FF3B3B"/><rect x="69" y="64" width="3" height="3" fill="#FF3B3B"/><rect x="72" y="64" width="3" height="3" fill="#FF3B3B"/><rect x="57" y="67" width="3" height="3" fill="#FF3B3B"/><rect x="60" y="67" width="3" height="3" fill="#FF3B3B"/><rect x="63" y="67" width="3" height="3" fill="#FF3B3B"/><rect x="66" y="67" width="3" height="3" fill="#FF3B3B"/><rect x="69" y="67" width="3" height="3" fill="#FF3B3B"/><rect x="60" y="70" width="3" height="3" fill="#FF3B3B"/><rect x="63" y="70" width="3" height="3" fill="#FF3B3B"/><rect x="66" y="70" width="3" height="3" fill="#FF3B3B"/><rect x="63" y="73" width="3" height="3" fill="#FF3B3B"/><rect x="81" y="58" width="3" height="3" fill="#FF3B3B"/><rect x="84" y="58" width="3" height="3" fill="#FF3B3B"/><rect x="90" y="58" width="3" height="3" fill="#FF3B3B"/><rect x="93" y="58" width="3" height="3" fill="#FF3B3B"/><rect x="78" y="61" width="3" height="3" fill="#FF3B3B"/><rect x="81" y="61" width="3" height="3" fill="#FF3B3B"/><rect x="84" y="61" width="3" height="3" fill="#FF3B3B"/><rect x="87" y="61" width="3" height="3" fill="#FF3B3B"/><rect x="90" y="61" width="3" height="3" fill="#FF3B3B"/><rect x="93" y="61" width="3" height="3" fill="#FF3B3B"/><rect x="96" y="61" width="3" height="3" fill="#FF3B3B"/><rect x="78" y="64" width="3" height="3" fill="#FF3B3B"/><rect x="81" y="64" width="3" height="3" fill="#FF3B3B"/><rect x="84" y="64" width="3" height="3" fill="#FF3B3B"/><rect x="87" y="64" width="3" height="3" fill="#FF3B3B"/><rect x="90" y="64" width="3" height="3" fill="#FF3B3B"/><rect x="93" y="64" width="3" height="3" fill="#FF3B3B"/><rect x="96" y="64" width="3" height="3" fill="#FF3B3B"/><rect x="81" y="67" width="3" height="3" fill="#FF3B3B"/><rect x="84" y="67" width="3" height="3" fill="#FF3B3B"/><rect x="87" y="67" width="3" height="3" fill="#FF3B3B"/><rect x="90" y="67" width="3" height="3" fill="#FF3B3B"/><rect x="93" y="67" width="3" height="3" fill="#FF3B3B"/><rect x="84" y="70" width="3" height="3" fill="#FF3B3B"/><rect x="87" y="70" width="3" height="3" fill="#FF3B3B"/><rect x="90" y="70" width="3" height="3" fill="#FF3B3B"/><rect x="87" y="73" width="3" height="3" fill="#FF3B3B"/><rect x="105" y="58" width="3" height="3" fill="#FF3B3B"/><rect x="108" y="58" width="3" height="3" fill="#FF3B3B"/><rect x="114" y="58" width="3" height="3" fill="#FF3B3B"/><rect x="117" y="58" width="3" height="3" fill="#FF3B3B"/><rect x="102" y="61" width="3" height="3" fill="#FF3B3B"/><rect x="105" y="61" width="3" height="3" fill="#FF3B3B"/><rect x="108" y="61" width="3" height="3" fill="#FF3B3B"/><rect x="111" y="61" width="3" height="3" fill="#FF3B3B"/><rect x="114" y="61" width="3" height="3" fill="#FF3B3B"/><rect x="117" y="61" width="3" height="3" fill="#FF3B3B"/><rect x="120" y="61" width="3" height="3" fill="#FF3B3B"/><rect x="102" y="64" width="3" height="3" fill="#FF3B3B"/><rect x="105" y="64" width="3" height="3" fill="#FF3B3B"/><rect x="108" y="64" width="3" height="3" fill="#FF3B3B"/><rect x="111" y="64" width="3" height="3" fill="#FF3B3B"/><rect x="114" y="64" width="3" height="3" fill="#FF3B3B"/><rect x="117" y="64" width="3" height="3" fill="#FF3B3B"/><rect x="120" y="64" width="3" height="3" fill="#FF3B3B"/><rect x="105" y="67" width="3" height="3" fill="#FF3B3B"/><rect x="108" y="67" width="3" height="3" fill="#FF3B3B"/><rect x="111" y="67" width="3" height="3" fill="#FF3B3B"/><rect x="114" y="67" width="3" height="3" fill="#FF3B3B"/><rect x="117" y="67" width="3" height="3" fill="#FF3B3B"/><rect x="108" y="70" width="3" height="3" fill="#FF3B3B"/><rect x="111" y="70" width="3" height="3" fill="#FF3B3B"/><rect x="114" y="70" width="3" height="3" fill="#FF3B3B"/><rect x="111" y="73" width="3" height="3" fill="#FF3B3B"/><rect x="129" y="58" width="3" height="3" fill="#FF3B3B"/><rect x="132" y="58" width="3" height="3" fill="#FF3B3B"/><rect x="138" y="58" width="3" height="3" fill="#FF3B3B"/><rect x="141" y="58" width="3" height="3" fill="#FF3B3B"/><rect x="126" y="61" width="3" height="3" fill="#FF3B3B"/><rect x="129" y="61" width="3" height="3" fill="#FF3B3B"/><rect x="132" y="61" width="3" height="3" fill="#FF3B3B"/><rect x="135" y="61" width="3" height="3" fill="#FF3B3B"/><rect x="138" y="61" width="3" height="3" fill="#FF3B3B"/><rect x="141" y="61" width="3" height="3" fill="#FF3B3B"/><rect x="144" y="61" width="3" height="3" fill="#FF3B3B"/><rect x="126" y="64" width="3" height="3" fill="#FF3B3B"/><rect x="129" y="64" width="3" height="3" fill="#FF3B3B"/><rect x="132" y="64" width="3" height="3" fill="#FF3B3B"/><rect x="135" y="64" width="3" height="3" fill="#FF3B3B"/><rect x="138" y="64" width="3" height="3" fill="#FF3B3B"/><rect x="141" y="64" width="3" height="3" fill="#FF3B3B"/><rect x="144" y="64" width="3" height="3" fill="#FF3B3B"/><rect x="129" y="67" width="3" height="3" fill="#FF3B3B"/><rect x="132" y="67" width="3" height="3" fill="#FF3B3B"/><rect x="135" y="67" width="3" height="3" fill="#FF3B3B"/><rect x="138" y="67" width="3" height="3" fill="#FF3B3B"/><rect x="141" y="67" width="3" height="3" fill="#FF3B3B"/><rect x="132" y="70" width="3" height="3" fill="#FF3B3B"/><rect x="135" y="70" width="3" height="3" fill="#FF3B3B"/><rect x="138" y="70" width="3" height="3" fill="#FF3B3B"/><rect x="135" y="73" width="3" height="3" fill="#FF3B3B"/><rect x="153" y="58" width="3" height="3" fill="#FF3B3B"/><rect x="156" y="58" width="3" height="3" fill="#FF3B3B"/><rect x="162" y="58" width="3" height="3" fill="#FF3B3B"/><rect x="165" y="58" width="3" height="3" fill="#FF3B3B"/><rect x="150" y="61" width="3" height="3" fill="#FF3B3B"/><rect x="153" y="61" width="3" height="3" fill="#FF3B3B"/><rect x="156" y="61" width="3" height="3" fill="#FF3B3B"/><rect x="159" y="61" width="3" height="3" fill="#FF3B3B"/><rect x="162" y="61" width="3" height="3" fill="#FF3B3B"/><rect x="165" y="61" width="3" height="3" fill="#FF3B3B"/><rect x="168" y="61" width="3" height="3" fill="#FF3B3B"/><rect x="150" y="64" width="3" height="3" fill="#FF3B3B"/><rect x="153" y="64" width="3" height="3" fill="#FF3B3B"/><rect x="156" y="64" width="3" height="3" fill="#FF3B3B"/><rect x="159" y="64" width="3" height="3" fill="#FF3B3B"/><rect x="162" y="64" width="3" height="3" fill="#FF3B3B"/><rect x="165" y="64" width="3" height="3" fill="#FF3B3B"/><rect x="168" y="64" width="3" height="3" fill="#FF3B3B"/><rect x="153" y="67" width="3" height="3" fill="#FF3B3B"/><rect x="156" y="67" width="3" height="3" fill="#FF3B3B"/><rect x="159" y="67" width="3" height="3" fill="#FF3B3B"/><rect x="162" y="67" width="3" height="3" fill="#FF3B3B"/><rect x="165" y="67" width="3" height="3" fill="#FF3B3B"/><rect x="156" y="70" width="3" height="3" fill="#FF3B3B"/><rect x="159" y="70" width="3" height="3" fill="#FF3B3B"/><rect x="162" y="70" width="3" height="3" fill="#FF3B3B"/><rect x="159" y="73" width="3" height="3" fill="#FF3B3B"/><rect x="177" y="58" width="3" height="3" fill="#FF3B3B"/><rect x="180" y="58" width="3" height="3" fill="#FF3B3B"/><rect x="186" y="58" width="3" height="3" fill="#FF3B3B"/><rect x="189" y="58" width="3" height="3" fill="#FF3B3B"/><rect x="174" y="61" width="3" height="3" fill="#FF3B3B"/><rect x="177" y="61" width="3" height="3" fill="#FF3B3B"/><rect x="180" y="61" width="3" height="3" fill="#FF3B3B"/><rect x="183" y="61" width="3" height="3" fill="#FF3B3B"/><rect x="186" y="61" width="3" height="3" fill="#FF3B3B"/><rect x="189" y="61" width="3" height="3" fill="#FF3B3B"/><rect x="192" y="61" width="3" height="3" fill="#FF3B3B"/><rect x="174" y="64" width="3" height="3" fill="#FF3B3B"/><rect x="177" y="64" width="3" height="3" fill="#FF3B3B"/><rect x="180" y="64" width="3" height="3" fill="#FF3B3B"/><rect x="183" y="64" width="3" height="3" fill="#FF3B3B"/><rect x="186" y="64" width="3" height="3" fill="#FF3B3B"/><rect x="189" y="64" width="3" height="3" fill="#FF3B3B"/><rect x="192" y="64" width="3" height="3" fill="#FF3B3B"/><rect x="177" y="67" width="3" height="3" fill="#FF3B3B"/><rect x="180" y="67" width="3" height="3" fill="#FF3B3B"/><rect x="183" y="67" width="3" height="3" fill="#FF3B3B"/><rect x="186" y="67" width="3" height="3" fill="#FF3B3B"/><rect x="189" y="67" width="3" height="3" fill="#FF3B3B"/><rect x="180" y="70" width="3" height="3" fill="#FF3B3B"/><rect x="183" y="70" width="3" height="3" fill="#FF3B3B"/><rect x="186" y="70" width="3" height="3" fill="#FF3B3B"/><rect x="183" y="73" width="3" height="3" fill="#FF3B3B"/><rect x="201" y="58" width="3" height="3" fill="#FF3B3B"/><rect x="204" y="58" width="3" height="3" fill="#FF3B3B"/><rect x="210" y="58" width="3" height="3" fill="#FF3B3B"/><rect x="213" y="58" width="3" height="3" fill="#FF3B3B"/><rect x="198" y="61" width="3" height="3" fill="#FF3B3B"/><rect x="201" y="61" width="3" height="3" fill="#FF3B3B"/><rect x="204" y="61" width="3" height="3" fill="#FF3B3B"/><rect x="207" y="61" width="3" height="3" fill="#FF3B3B"/><rect x="210" y="61" width="3" height="3" fill="#FF3B3B"/><rect x="213" y="61" width="3" height="3" fill="#FF3B3B"/><rect x="216" y="61" width="3" height="3" fill="#FF3B3B"/><rect x="198" y="64" width="3" height="3" fill="#FF3B3B"/><rect x="201" y="64" width="3" height="3" fill="#FF3B3B"/><rect x="204" y="64" width="3" height="3" fill="#FF3B3B"/><rect x="207" y="64" width="3" height="3" fill="#FF3B3B"/><rect x="210" y="64" width="3" height="3" fill="#FF3B3B"/><rect x="213" y="64" width="3" height="3" fill="#FF3B3B"/><rect x="216" y="64" width="3" height="3" fill="#FF3B3B"/><rect x="201" y="67" width="3" height="3" fill="#FF3B3B"/><rect x="204" y="67" width="3" height="3" fill="#FF3B3B"/><rect x="207" y="67" width="3" height="3" fill="#FF3B3B"/><rect x="210" y="67" width="3" height="3" fill="#FF3B3B"/><rect x="213" y="67" width="3" height="3" fill="#FF3B3B"/><rect x="204" y="70" width="3" height="3" fill="#FF3B3B"/><rect x="207" y="70" width="3" height="3" fill="#FF3B3B"/><rect x="210" y="70" width="3" height="3" fill="#FF3B3B"/><rect x="207" y="73" width="3" height="3" fill="#FF3B3B"/><rect x="225" y="58" width="3" height="3" fill="#FF3B3B"/><rect x="228" y="58" width="3" height="3" fill="#FF3B3B"/><rect x="234" y="58" width="3" height="3" fill="#FF3B3B"/><rect x="237" y="58" width="3" height="3" fill="#FF3B3B"/><rect x="222" y="61" width="3" height="3" fill="#FF3B3B"/><rect x="225" y="61" width="3" height="3" fill="#FF3B3B"/><rect x="228" y="61" width="3" height="3" fill="#FF3B3B"/><rect x="231" y="61" width="3" height="3" fill="#FF3B3B"/><rect x="234" y="61" width="3" height="3" fill="#FF3B3B"/><rect x="237" y="61" width="3" height="3" fill="#FF3B3B"/><rect x="240" y="61" width="3" height="3" fill="#FF3B3B"/><rect x="222" y="64" width="3" height="3" fill="#FF3B3B"/><rect x="225" y="64" width="3" height="3" fill="#FF3B3B"/><rect x="228" y="64" width="3" height="3" fill="#FF3B3B"/><rect x="231" y="64" width="3" height="3" fill="#FF3B3B"/><rect x="234" y="64" width="3" height="3" fill="#FF3B3B"/><rect x="237" y="64" width="3" height="3" fill="#FF3B3B"/><rect x="240" y="64" width="3" height="3" fill="#FF3B3B"/><rect x="225" y="67" width="3" height="3" fill="#FF3B3B"/><rect x="228" y="67" width="3" height="3" fill="#FF3B3B"/><rect x="231" y="67" width="3" height="3" fill="#FF3B3B"/><rect x="234" y="67" width="3" height="3" fill="#FF3B3B"/><rect x="237" y="67" width="3" height="3" fill="#FF3B3B"/><rect x="228" y="70" width="3" height="3" fill="#FF3B3B"/><rect x="231" y="70" width="3" height="3" fill="#FF3B3B"/><rect x="234" y="70" width="3" height="3" fill="#FF3B3B"/><rect x="231" y="73" width="3" height="3" fill="#FF3B3B"/><rect x="249" y="58" width="3" height="3" fill="#FF3B3B"/><rect x="252" y="58" width="3" height="3" fill="#FF3B3B"/><rect x="258" y="58" width="3" height="3" fill="#FF3B3B"/><rect x="261" y="58" width="3" height="3" fill="#FF3B3B"/><rect x="246" y="61" width="3" height="3" fill="#FF3B3B"/><rect x="249" y="61" width="3" height="3" fill="#FF3B3B"/><rect x="252" y="61" width="3" height="3" fill="#FF3B3B"/><rect x="255" y="61" width="3" height="3" fill="#FF3B3B"/><rect x="258" y="61" width="3" height="3" fill="#FF3B3B"/><rect x="261" y="61" width="3" height="3" fill="#FF3B3B"/><rect x="264" y="61" width="3" height="3" fill="#FF3B3B"/><rect x="246" y="64" width="3" height="3" fill="#FF3B3B"/><rect x="249" y="64" width="3" height="3" fill="#FF3B3B"/><rect x="252" y="64" width="3" height="3" fill="#FF3B3B"/><rect x="255" y="64" width="3" height="3" fill="#FF3B3B"/><rect x="258" y="64" width="3" height="3" fill="#FF3B3B"/><rect x="261" y="64" width="3" height="3" fill="#FF3B3B"/><rect x="264" y="64" width="3" height="3" fill="#FF3B3B"/><rect x="249" y="67" width="3" height="3" fill="#FF3B3B"/><rect x="252" y="67" width="3" height="3" fill="#FF3B3B"/><rect x="255" y="67" width="3" height="3" fill="#FF3B3B"/><rect x="258" y="67" width="3" height="3" fill="#FF3B3B"/><rect x="261" y="67" width="3" height="3" fill="#FF3B3B"/><rect x="252" y="70" width="3" height="3" fill="#FF3B3B"/><rect x="255" y="70" width="3" height="3" fill="#FF3B3B"/><rect x="258" y="70" width="3" height="3" fill="#FF3B3B"/><rect x="255" y="73" width="3" height="3" fill="#FF3B3B"/>
  <rect x="36" y="96" width="3" height="3" fill="#B5651D"/><rect x="39" y="96" width="3" height="3" fill="#B5651D"/><rect x="33" y="99" width="3" height="3" fill="#B5651D"/><rect x="36" y="99" width="3" height="3" fill="#B5651D"/><rect x="39" y="99" width="3" height="3" fill="#B5651D"/><rect x="42" y="99" width="3" height="3" fill="#B5651D"/><rect x="30" y="102" width="3" height="3" fill="#B5651D"/><rect x="33" y="102" width="3" height="3" fill="#B5651D"/><rect x="36" y="102" width="3" height="3" fill="#B5651D"/><rect x="39" y="102" width="3" height="3" fill="#B5651D"/><rect x="42" y="102" width="3" height="3" fill="#B5651D"/><rect x="33" y="105" width="3" height="3" fill="#B5651D"/><rect x="36" y="105" width="3" height="3" fill="#B5651D"/><rect x="39" y="105" width="3" height="3" fill="#B5651D"/><rect x="36" y="108" width="3" height="3" fill="#B5651D"/><rect x="39" y="108" width="3" height="3" fill="#B5651D"/><rect x="39" y="111" width="3" height="3" fill="#B5651D"/><rect x="42" y="111" width="3" height="3" fill="#B5651D"/><rect x="60" y="96" width="3" height="3" fill="#B5651D"/><rect x="63" y="96" width="3" height="3" fill="#B5651D"/><rect x="57" y="99" width="3" height="3" fill="#B5651D"/><rect x="60" y="99" width="3" height="3" fill="#B5651D"/><rect x="63" y="99" width="3" height="3" fill="#B5651D"/><rect x="66" y="99" width="3" height="3" fill="#B5651D"/><rect x="54" y="102" width="3" height="3" fill="#B5651D"/><rect x="57" y="102" width="3" height="3" fill="#B5651D"/><rect x="60" y="102" width="3" height="3" fill="#B5651D"/><rect x="63" y="102" width="3" height="3" fill="#B5651D"/><rect x="66" y="102" width="3" height="3" fill="#B5651D"/><rect x="57" y="105" width="3" height="3" fill="#B5651D"/><rect x="60" y="105" width="3" height="3" fill="#B5651D"/><rect x="63" y="105" width="3" height="3" fill="#B5651D"/><rect x="60" y="108" width="3" height="3" fill="#B5651D"/><rect x="63" y="108" width="3" height="3" fill="#B5651D"/><rect x="63" y="111" width="3" height="3" fill="#B5651D"/><rect x="66" y="111" width="3" height="3" fill="#B5651D"/><rect x="84" y="96" width="3" height="3" fill="#B5651D"/><rect x="87" y="96" width="3" height="3" fill="#B5651D"/><rect x="81" y="99" width="3" height="3" fill="#B5651D"/><rect x="84" y="99" width="3" height="3" fill="#B5651D"/><rect x="87" y="99" width="3" height="3" fill="#B5651D"/><rect x="90" y="99" width="3" height="3" fill="#B5651D"/><rect x="78" y="102" width="3" height="3" fill="#B5651D"/><rect x="81" y="102" width="3" height="3" fill="#B5651D"/><rect x="84" y="102" width="3" height="3" fill="#B5651D"/><rect x="87" y="102" width="3" height="3" fill="#B5651D"/><rect x="90" y="102" width="3" height="3" fill="#B5651D"/><rect x="81" y="105" width="3" height="3" fill="#B5651D"/><rect x="84" y="105" width="3" height="3" fill="#B5651D"/><rect x="87" y="105" width="3" height="3" fill="#B5651D"/><rect x="84" y="108" width="3" height="3" fill="#B5651D"/><rect x="87" y="108" width="3" height="3" fill="#B5651D"/><rect x="87" y="111" width="3" height="3" fill="#B5651D"/><rect x="90" y="111" width="3" height="3" fill="#B5651D"/><rect x="108" y="96" width="3" height="3" fill="#B5651D"/><rect x="111" y="96" width="3" height="3" fill="#B5651D"/><rect x="105" y="99" width="3" height="3" fill="#B5651D"/><rect x="108" y="99" width="3" height="3" fill="#B5651D"/><rect x="111" y="99" width="3" height="3" fill="#B5651D"/><rect x="114" y="99" width="3" height="3" fill="#B5651D"/><rect x="102" y="102" width="3" height="3" fill="#B5651D"/><rect x="105" y="102" width="3" height="3" fill="#B5651D"/><rect x="108" y="102" width="3" height="3" fill="#B5651D"/><rect x="111" y="102" width="3" height="3" fill="#B5651D"/><rect x="114" y="102" width="3" height="3" fill="#B5651D"/><rect x="105" y="105" width="3" height="3" fill="#B5651D"/><rect x="108" y="105" width="3" height="3" fill="#B5651D"/><rect x="111" y="105" width="3" height="3" fill="#B5651D"/><rect x="108" y="108" width="3" height="3" fill="#B5651D"/><rect x="111" y="108" width="3" height="3" fill="#B5651D"/><rect x="111" y="111" width="3" height="3" fill="#B5651D"/><rect x="114" y="111" width="3" height="3" fill="#B5651D"/><rect x="132" y="96" width="3" height="3" fill="#B5651D"/><rect x="135" y="96" width="3" height="3" fill="#B5651D"/><rect x="129" y="99" width="3" height="3" fill="#B5651D"/><rect x="132" y="99" width="3" height="3" fill="#B5651D"/><rect x="135" y="99" width="3" height="3" fill="#B5651D"/><rect x="138" y="99" width="3" height="3" fill="#B5651D"/><rect x="126" y="102" width="3" height="3" fill="#B5651D"/><rect x="129" y="102" width="3" height="3" fill="#B5651D"/><rect x="132" y="102" width="3" height="3" fill="#B5651D"/><rect x="135" y="102" width="3" height="3" fill="#B5651D"/><rect x="138" y="102" width="3" height="3" fill="#B5651D"/><rect x="129" y="105" width="3" height="3" fill="#B5651D"/><rect x="132" y="105" width="3" height="3" fill="#B5651D"/><rect x="135" y="105" width="3" height="3" fill="#B5651D"/><rect x="132" y="108" width="3" height="3" fill="#B5651D"/><rect x="135" y="108" width="3" height="3" fill="#B5651D"/><rect x="135" y="111" width="3" height="3" fill="#B5651D"/><rect x="138" y="111" width="3" height="3" fill="#B5651D"/><rect x="156" y="96" width="3" height="3" fill="#B5651D"/><rect x="159" y="96" width="3" height="3" fill="#B5651D"/><rect x="153" y="99" width="3" height="3" fill="#B5651D"/><rect x="156" y="99" width="3" height="3" fill="#B5651D"/><rect x="159" y="99" width="3" height="3" fill="#B5651D"/><rect x="162" y="99" width="3" height="3" fill="#B5651D"/><rect x="150" y="102" width="3" height="3" fill="#B5651D"/><rect x="153" y="102" width="3" height="3" fill="#B5651D"/><rect x="156" y="102" width="3" height="3" fill="#B5651D"/><rect x="159" y="102" width="3" height="3" fill="#B5651D"/><rect x="162" y="102" width="3" height="3" fill="#B5651D"/><rect x="153" y="105" width="3" height="3" fill="#B5651D"/><rect x="156" y="105" width="3" height="3" fill="#B5651D"/><rect x="159" y="105" width="3" height="3" fill="#B5651D"/><rect x="156" y="108" width="3" height="3" fill="#B5651D"/><rect x="159" y="108" width="3" height="3" fill="#B5651D"/><rect x="159" y="111" width="3" height="3" fill="#B5651D"/><rect x="162" y="111" width="3" height="3" fill="#B5651D"/><rect x="180" y="96" width="3" height="3" fill="#B5651D"/><rect x="183" y="96" width="3" height="3" fill="#B5651D"/><rect x="177" y="99" width="3" height="3" fill="#B5651D"/><rect x="180" y="99" width="3" height="3" fill="#B5651D"/><rect x="183" y="99" width="3" height="3" fill="#B5651D"/><rect x="186" y="99" width="3" height="3" fill="#B5651D"/><rect x="174" y="102" width="3" height="3" fill="#B5651D"/><rect x="177" y="102" width="3" height="3" fill="#B5651D"/><rect x="180" y="102" width="3" height="3" fill="#B5651D"/><rect x="183" y="102" width="3" height="3" fill="#B5651D"/><rect x="186" y="102" width="3" height="3" fill="#B5651D"/><rect x="177" y="105" width="3" height="3" fill="#B5651D"/><rect x="180" y="105" width="3" height="3" fill="#B5651D"/><rect x="183" y="105" width="3" height="3" fill="#B5651D"/><rect x="180" y="108" width="3" height="3" fill="#B5651D"/><rect x="183" y="108" width="3" height="3" fill="#B5651D"/><rect x="183" y="111" width="3" height="3" fill="#B5651D"/><rect x="186" y="111" width="3" height="3" fill="#B5651D"/><rect x="204" y="96" width="3" height="3" fill="#B5651D"/><rect x="207" y="96" width="3" height="3" fill="#B5651D"/><rect x="201" y="99" width="3" height="3" fill="#B5651D"/><rect x="204" y="99" width="3" height="3" fill="#B5651D"/><rect x="207" y="99" width="3" height="3" fill="#B5651D"/><rect x="210" y="99" width="3" height="3" fill="#B5651D"/><rect x="198" y="102" width="3" height="3" fill="#B5651D"/><rect x="201" y="102" width="3" height="3" fill="#B5651D"/><rect x="204" y="102" width="3" height="3" fill="#B5651D"/><rect x="207" y="102" width="3" height="3" fill="#B5651D"/><rect x="210" y="102" width="3" height="3" fill="#B5651D"/><rect x="201" y="105" width="3" height="3" fill="#B5651D"/><rect x="204" y="105" width="3" height="3" fill="#B5651D"/><rect x="207" y="105" width="3" height="3" fill="#B5651D"/><rect x="204" y="108" width="3" height="3" fill="#B5651D"/><rect x="207" y="108" width="3" height="3" fill="#B5651D"/><rect x="207" y="111" width="3" height="3" fill="#B5651D"/><rect x="210" y="111" width="3" height="3" fill="#B5651D"/><rect x="228" y="96" width="3" height="3" fill="#B5651D"/><rect x="231" y="96" width="3" height="3" fill="#B5651D"/><rect x="225" y="99" width="3" height="3" fill="#B5651D"/><rect x="228" y="99" width="3" height="3" fill="#B5651D"/><rect x="231" y="99" width="3" height="3" fill="#B5651D"/><rect x="234" y="99" width="3" height="3" fill="#B5651D"/><rect x="222" y="102" width="3" height="3" fill="#B5651D"/><rect x="225" y="102" width="3" height="3" fill="#B5651D"/><rect x="228" y="102" width="3" height="3" fill="#B5651D"/><rect x="231" y="102" width="3" height="3" fill="#B5651D"/><rect x="234" y="102" width="3" height="3" fill="#B5651D"/><rect x="225" y="105" width="3" height="3" fill="#B5651D"/><rect x="228" y="105" width="3" height="3" fill="#B5651D"/><rect x="231" y="105" width="3" height="3" fill="#B5651D"/><rect x="228" y="108" width="3" height="3" fill="#B5651D"/><rect x="231" y="108" width="3" height="3" fill="#B5651D"/><rect x="231" y="111" width="3" height="3" fill="#B5651D"/><rect x="234" y="111" width="3" height="3" fill="#B5651D"/><rect x="252" y="96" width="3" height="3" fill="#B5651D"/><rect x="255" y="96" width="3" height="3" fill="#B5651D"/><rect x="249" y="99" width="3" height="3" fill="#B5651D"/><rect x="252" y="99" width="3" height="3" fill="#B5651D"/><rect x="255" y="99" width="3" height="3" fill="#B5651D"/><rect x="258" y="99" width="3" height="3" fill="#B5651D"/><rect x="246" y="102" width="3" height="3" fill="#B5651D"/><rect x="249" y="102" width="3" height="3" fill="#B5651D"/><rect x="252" y="102" width="3" height="3" fill="#B5651D"/><rect x="255" y="102" width="3" height="3" fill="#B5651D"/><rect x="258" y="102" width="3" height="3" fill="#B5651D"/><rect x="249" y="105" width="3" height="3" fill="#B5651D"/><rect x="252" y="105" width="3" height="3" fill="#B5651D"/><rect x="255" y="105" width="3" height="3" fill="#B5651D"/><rect x="252" y="108" width="3" height="3" fill="#B5651D"/><rect x="255" y="108" width="3" height="3" fill="#B5651D"/><rect x="255" y="111" width="3" height="3" fill="#B5651D"/><rect x="258" y="111" width="3" height="3" fill="#B5651D"/>
  <text x="30" y="140" font-size="14" fill="#1A1A1A" font-weight="bold">LVL 2027 — READY FOR DEPLOYMENT</text>
  <rect x="30" y="148" width="700" height="16" fill="#000000"/>
  <rect x="33" y="151" width="694" height="10" fill="#1a1a1a"/>
  <rect x="33" y="151" width="596" height="10" fill="#80FF20"/>
  <text x="390" y="182" font-size="12" fill="#3A5F2B" font-weight="bold" text-anchor="middle">CLASS: Full-Stack Developer   |   BIOME: MERN + AI   |   QUEST: SDE Internship 2026</text>
</svg>